screens;
 
http://baypic.net/img-519d9aae75efb.html 
 
http://baypic.net/img-519d9ab03eeff.html 
 
http://baypic.net/img-519d9ab20209a.html 

Format : MPEG-4
Format profile : Base Media
Codec ID : isom
File size : 787 MiB
Duration : 34mn 23s
Overall bit rate mode : Variable
Overall bit rate : 3 200 Kbps
Writing application : Lavf52.54.0

Video
ID : 1
Format : AVC
Format/Info : Advanced Video Codec
Format profile : High@L3.1
Format settings, CABAC : Yes
Format settings, ReFrames : 4 frames
Codec ID : avc1
Codec ID/Info : Advanced Video Coding
Duration : 34mn 23s
Duration_FirstFrame : 33ms
Bit rate : 3 000 Kbps
Width : 1 280 pixels
Height : 720 pixels
Display aspect ratio : 16:9
Frame rate mode : Constant
Frame rate : 29.970 fps
Color space : YUV
Chroma subsampling : 4:2:0
Bit depth : 8 bits
Scan type : Progressive
Bits/(Pixel*Frame) : 0.109
Stream size : 738 MiB (94%)
Writing library : x264 core 98
Language : English
Tagged date : UTC 2013-04-12 20:13:51

Audio
ID : 2
Format : AAC
Format/Info : Advanced Audio Codec
Format profile : LC
Codec ID : 40
Duration : 34mn 23s
Bit rate mode : Variable
Bit rate : 63.6 Kbps
Channel(s) : 2 channels
Channel positions : Front: L R
Sampling rate : 48.0 KHz
Compression mode : Lossy
Stream size : 15.6 MiB (2%)
Language : English
